# xmcd CD database file
#
# Track frame offsets:
#	187
#	22814
#	44209
#	66774
#
# Disc length: 1175 seconds
#
# Revision: 0
# Processed by: cddbd v1.5PL3 Copyright (c) Steve Scherf et al.
# Submitted via: CDex 1.50beta9
#
DISCID=30049504
DTITLE=中森明菜 - 月華
DYEAR=1994
DGENRE=JPop
TTITLE0=月華
TTITLE1=Blue Lace
TTITLE2=月華(オリジナル・カラオケ)
TTITLE3=Blue Lace(オリジナル・カラオケ)
EXTD=YEAR: 1994
EXTT0=
EXTT1=
EXTT2=
EXTT3=
PLAYORDER=
